<svg width="274" height="240" viewBox="0 0 274 240" fill="none" xmlns="http://www.w3.org/2000/svg">
<path d="M88.3906 161.175C88.0715 160.623 87.3498 160.029 87.7 159.469C88.0502 158.909 88.9126 159.126 89.5885 159.094C98.825 159.088 108.057 159.147 117.307 159.091C117.89 159.042 118.473 159.176 118.977 159.474C119.48 159.772 119.879 160.218 120.118 160.752L135.788 187.897C136.901 189.823 136.91 189.839 138.056 187.85C144.9 175.982 151.738 164.103 158.57 152.214C164.86 141.234 171.258 130.149 177.707 119.225C178.229 118.519 178.514 117.666 178.521 116.788C178.529 115.91 178.258 115.052 177.748 114.338L154.858 74.6864C153.408 72.1756 153.408 72.1756 156.201 72.1634C165.306 72.1485 174.398 72.1834 183.523 72.0938C184.044 72.0495 184.566 72.1663 185.019 72.4285C185.471 72.6906 185.832 73.0854 186.053 73.5595L210.055 115.137C210.397 115.619 210.58 116.195 210.577 116.786C210.575 117.377 210.387 117.952 210.041 118.43C205.796 125.661 201.793 132.983 197.428 140.115C193.226 146.983 189.514 154.116 185.44 161.059C178.257 173.228 171.195 185.496 164.139 197.739C155.595 212.569 150.97 220.616 142.475 235.458C142.436 235.529 142.331 235.713 142.177 235.983C139.842 240.077 133.986 240.085 131.63 236.003L88.3906 161.175Z" fill="url(#paint0_linear_77_59)"/>
<path d="M94.5388 0.241993L83.3663 19.5365C82.0943 21.7448 80.7542 23.9082 79.5752 26.1681C79.3711 26.6497 79.0158 27.0517 78.5629 27.3132C78.11 27.5747 77.5842 27.6815 77.0652 27.6174C66.8382 27.5852 56.6071 27.6186 46.3668 27.6361L45.5821 27.626C43.1742 27.6478 43.1742 27.6478 44.3593 29.7007L84.4693 99.1809C84.7283 99.7374 85.1523 100.201 85.6836 100.508C86.2148 100.815 86.8278 100.951 87.4391 100.898C103.17 100.826 118.884 100.799 134.582 100.817C136.958 100.813 136.974 100.804 135.767 102.869C131.175 110.848 126.496 118.75 121.984 126.83C121.743 127.359 121.343 127.801 120.839 128.092C120.335 128.383 119.753 128.509 119.174 128.452C103.135 128.379 87.1024 128.365 71.0762 128.411C70.1695 128.408 69.4547 128.337 68.9077 127.389C58.9523 109.95 48.9721 92.5521 38.9673 75.197L0.796896 9.07662C-1.46952 5.15064 1.36877 0.244197 5.90159 0.252453C10.6287 0.261063 15.4989 0.26943 16.8535 0.269978L51.7211 0.268431L93.4147 0.154175C93.7906 0.164567 94.1658 0.19388 94.5388 0.241993Z" fill="url(#paint1_linear_77_59)"/>
<path d="M112.124 58.3048L105.396 46.6511C105.003 46.1176 104.788 45.473 104.783 44.8098C104.779 44.1467 104.984 43.4992 105.371 42.9604C110.603 34.0858 115.752 25.1755 120.901 16.2651C123.512 11.7465 126.196 7.20712 128.601 2.65996C128.984 1.79377 129.632 1.0718 130.452 0.59829C131.273 0.124785 132.222 -0.075736 133.163 0.025692C144.248 0.194385 155.347 0.206969 166.438 0.203759C180.956 0.242871 195.459 0.220239 209.947 0.135848C222.216 0.0702012 234.512 0.0654948 246.837 0.121725C253.183 0.117596 260.238 0.231792 267.076 0.311718C271.798 0.366929 274.753 5.49964 272.401 9.59594C258.412 33.9577 244.087 59.2445 230.263 83.2357C229.812 84.0224 229.53 85.3218 228.651 85.3663C227.772 85.4109 227.297 84.0425 226.833 83.2371L214.07 61.1297C213.531 60.3837 213.238 59.4883 213.231 58.5679C213.224 57.6476 213.503 56.7479 214.031 55.9939C219.244 47.1941 224.261 38.2753 229.406 29.4306C230.22 28.0339 230.089 27.6251 228.376 27.6462C221.106 27.6327 213.868 27.601 206.599 27.5875C187.235 27.5884 167.883 27.6458 148.517 27.606C147.737 27.5145 146.949 27.677 146.269 28.0695C145.589 28.462 145.054 29.0635 144.744 29.7845C140.953 36.5631 137.036 43.2676 133.222 49.9332C129.409 56.5988 125.353 63.573 121.408 70.3771C120.43 72.0368 120.249 72.015 119.283 70.3412L112.124 58.3048Z" fill="url(#paint2_linear_77_59)"/>
<defs>
<linearGradient id="paint0_linear_77_59" x1="0.0109882" y1="6.46452" x2="135.313" y2="239.061" gradientUnits="userSpaceOnUse">
<stop stop-color="#41D1FF"/>
<stop offset="1" stop-color="#BD34FE"/>
</linearGradient>
<linearGradient id="paint1_linear_77_59" x1="0.0109882" y1="6.46452" x2="135.313" y2="239.061" gradientUnits="userSpaceOnUse">
<stop stop-color="#41D1FF"/>
<stop offset="1" stop-color="#BD34FE"/>
</linearGradient>
<linearGradient id="paint2_linear_77_59" x1="119.051" y1="69.2524" x2="231.006" y2="19.5124" gradientUnits="userSpaceOnUse">
<stop stop-color="#F3DE3D"/>
<stop offset="0.278846" stop-color="#F5B62D"/>
<stop offset="1" stop-color="#F21818"/>
</linearGradient>
</defs>
</svg>
