<svg width="316" height="101" viewBox="0 0 316 101" fill="none" xmlns="http://www.w3.org/2000/svg">
<path fill-rule="evenodd" clip-rule="evenodd" d="M13.9395 51.0641C13.9395 43.88 19.7501 38.0558 26.9181 38.0558C34.086 38.0558 39.8967 43.88 39.8967 51.0641C39.8967 58.2484 34.086 64.0726 26.9181 64.0726C19.7501 64.0726 13.9395 58.2482 13.9395 51.0641ZM26.9181 41.6927C21.754 41.6927 17.5678 45.8884 17.5678 51.0641C17.5678 56.24 21.7542 60.4357 26.9181 60.4357C32.0819 60.4357 36.2683 56.24 36.2683 51.0641C36.2683 45.8884 32.0819 41.6927 26.9181 41.6927ZM58.8567 64.0814C66.0271 64.0814 71.8397 58.2554 71.8397 51.0686C71.8397 43.8819 66.0271 38.0558 58.8567 38.0558C51.6862 38.0558 45.8736 43.8819 45.8736 51.0686C45.8736 58.2554 51.6862 64.0814 58.8567 64.0814ZM81.3847 63.7343H109.679V57.6676H91.9144L109.321 45.1394L109.428 38.0317H81.886L81.7428 44.0983H98.791L81.3847 56.7343V63.7343ZM127.499 64.3085C132.442 64.3085 137.17 63.1957 139.677 61.5804L137.349 57.5599C135.45 58.6367 131.761 59.4266 128.108 59.4266C124.634 59.4266 121.411 58.565 120.444 56.4111H139.784C139.963 55.801 140.035 55.0111 140.035 54.4727C140.035 48.5138 134.483 44.6008 126.067 44.6008C117.507 44.6008 111.526 48.6573 111.526 54.4367C111.526 60.4676 117.973 64.3085 127.499 64.3085ZM120.301 52.7855C120.623 50.7034 122.951 49.2317 125.995 49.2317C128.968 49.2317 131.403 50.6676 131.511 52.7855H120.301ZM142.922 63.7343H165.378C171.538 63.7343 175.156 61.0778 175.156 56.6623C175.156 53.7548 173.329 51.4932 170.321 50.7034V50.6317C172.899 49.7343 174.439 47.6882 174.439 45.1034C174.439 40.6522 170.786 38.0317 164.662 38.0317H142.922V63.7343ZM152.27 48.406V43.165H161.582C163.766 43.165 165.091 44.1343 165.091 45.7855C165.091 47.4367 163.766 48.406 161.582 48.406H152.27ZM152.234 58.601V53.001H162.083C164.375 53.001 165.808 54.0778 165.808 55.8367C165.808 57.5239 164.375 58.601 162.083 58.601H152.234ZM193.373 44.601C190.042 44.601 187.033 46.4676 185.672 49.4829H185.636L184.49 45.2111H177.435V63.7343H185.923V55.4778C185.923 51.9599 187.355 49.7343 189.755 49.7343C191.51 49.7343 192.728 51.4932 192.871 54.2573L200.607 52.7495C200.321 47.7957 197.491 44.601 193.373 44.601ZM209.988 64.3085C215.075 64.3085 219.122 62.5495 220.949 59.7138H220.984L222.131 63.7343H229.473V51.7445C229.473 47.1855 224.1 44.601 215.971 44.601C210.132 44.601 204.33 46.1804 200.748 48.6215L202.969 53.0367C206.479 50.7752 211.494 49.3394 215.971 49.3394C219.087 49.3394 221.128 50.0215 221.128 50.9188C221.128 51.2778 220.662 51.565 219.874 51.6367L212.819 52.2829C205.154 53.001 200.677 55.5138 200.677 59.2111C200.677 62.4418 204.115 64.3085 209.988 64.3085ZM212.997 59.2829C210.491 59.2829 209.166 58.7445 209.166 57.8111C209.166 56.8418 210.634 56.3034 213.391 56.0882L220.984 55.406V55.4778C220.984 57.7394 217.797 59.2829 212.997 59.2829ZM236.401 43.2367C239.123 43.2367 241.094 41.5138 241.094 39.0727C241.094 36.6317 239.123 34.9445 236.401 34.9445C233.679 34.9445 231.71 36.6317 231.71 39.0725C231.71 41.5138 233.679 43.2367 236.401 43.2367ZM232.176 63.7343H240.628V45.2111H232.176V63.7343ZM261.732 44.601C257.111 44.601 253.601 46.6111 251.882 49.6983H251.846L250.951 45.2111H243.645V63.7343H252.098V55.0471C252.098 51.529 254.282 49.4471 257.863 49.4471C261.014 49.4471 262.841 51.206 262.841 54.1495V63.7343H271.257L271.294 53.2522C271.329 47.9034 267.604 44.601 261.732 44.601ZM287.008 64.3085C294.242 64.3085 299.651 62.2623 299.651 57.6317C299.651 53.9343 296.248 52.3548 289.48 51.8522L284.895 51.4573C282.674 51.2778 281.564 50.9906 281.564 50.2727C281.564 49.3394 283.857 48.8727 286.83 48.8727C290.161 48.8727 293.67 49.7701 295.963 50.9548L297.967 47.0418C294.708 45.4266 290.841 44.601 286.936 44.601C279.667 44.601 274.402 46.6829 274.402 51.3138C274.402 54.6882 277.589 56.1957 283.821 56.6266L288.405 56.9855C290.948 57.165 292.273 57.5599 292.273 58.3138C292.273 59.1752 290.483 59.7495 286.471 59.7495C282.28 59.7495 277.624 58.601 275.118 57.0573L272.896 61.365C276.014 63.1239 281.708 64.3085 287.008 64.3085Z" fill="#1D1D1B"/>
</svg>
